<svg width="48" height="48" viewBox="0 0 48 48" fill="none" xmlns="http://www.w3.org/2000/svg">
<rect width="48" height="48" rx="24" fill="white"/>
<path d="M30.2997 17.7107C29.9097 17.3207 29.2797 17.3207 28.8897 17.7107L23.9997 22.5907L19.1097 17.7007C18.7197 17.3107 18.0897 17.3107 17.6997 17.7007C17.3097 18.0907 17.3097 18.7207 17.6997 19.1107L22.5897 24.0007L17.6997 28.8907C17.3097 29.2807 17.3097 29.9107 17.6997 30.3007C18.0897 30.6907 18.7197 30.6907 19.1097 30.3007L23.9997 25.4107L28.8897 30.3007C29.2797 30.6907 29.9097 30.6907 30.2997 30.3007C30.6897 29.9107 30.6897 29.2807 30.2997 28.8907L25.4097 24.0007L30.2997 19.1107C30.6797 18.7307 30.6797 18.0907 30.2997 17.7107Z" fill="black"/>
</svg>
