<svg width="72" height="72" viewBox="0 0 72 72" fill="none" xmlns="http://www.w3.org/2000/svg">
<g clip-path="url(#clip0_571_4702)">
<path d="M29 40.9543V30.0457C29 28.4319 31.0041 27.4513 32.5071 28.3297L41.9581 33.784C43.3473 34.5807 43.3473 36.4193 41.9581 37.216L32.5071 42.6703C31.0041 43.5487 29 42.5681 29 40.9543Z" fill="white"/>
<path fill-rule="evenodd" clip-rule="evenodd" d="M36 2C17.2223 2 2 17.2223 2 36C2 54.7777 17.2223 70 36 70C54.7777 70 70 54.7777 70 36C70 17.2223 54.7777 2 36 2ZM0 36C0 16.1177 16.1177 0 36 0C55.8823 0 72 16.1177 72 36C72 55.8823 55.8823 72 36 72C16.1177 72 0 55.8823 0 36Z" fill="white"/>
</g>
<defs>
<clipPath id="clip0_571_4702">
<rect width="72" height="72" fill="white"/>
</clipPath>
</defs>
</svg>
