<svg width="72" height="72" viewBox="0 0 72 72" fill="none" xmlns="http://www.w3.org/2000/svg">
<path d="M23.714 21.664C23.7513 20.6653 24.078 19.8953 24.694 19.354C25.31 18.8127 26.1453 18.542 27.2 18.542C27.9 18.542 28.4973 18.6633 28.992 18.906C29.496 19.1487 29.874 19.48 30.126 19.9C30.3873 20.32 30.518 20.7913 30.518 21.314C30.518 21.93 30.364 22.434 30.056 22.826C29.748 23.2087 29.3887 23.47 28.978 23.61V23.666C29.51 23.8433 29.93 24.1373 30.238 24.548C30.546 24.9587 30.7 25.486 30.7 26.13C30.7 26.7087 30.5647 27.222 30.294 27.67C30.0327 28.1087 29.6453 28.454 29.132 28.706C28.628 28.958 28.026 29.084 27.326 29.084C26.206 29.084 25.31 28.8087 24.638 28.258C23.9753 27.7073 23.6253 26.8767 23.588 25.766H25.912C25.9213 26.1767 26.038 26.5033 26.262 26.746C26.486 26.9793 26.8127 27.096 27.242 27.096C27.606 27.096 27.886 26.9933 28.082 26.788C28.2873 26.5733 28.39 26.2933 28.39 25.948C28.39 25.5 28.2453 25.178 27.956 24.982C27.676 24.7767 27.2233 24.674 26.598 24.674H26.15V22.728H26.598C27.074 22.728 27.4567 22.6487 27.746 22.49C28.0447 22.322 28.194 22.028 28.194 21.608C28.194 21.272 28.1007 21.0107 27.914 20.824C27.7273 20.6373 27.4707 20.544 27.144 20.544C26.7893 20.544 26.5233 20.6513 26.346 20.866C26.178 21.0807 26.08 21.3467 26.052 21.664H23.714Z" fill="#006B8E"/>
<path d="M36.6606 21.538C36.5859 21.1927 36.4552 20.936 36.2686 20.768C36.0819 20.5907 35.8159 20.502 35.4706 20.502C34.9386 20.502 34.5559 20.7353 34.3226 21.202C34.0892 21.6593 33.9679 22.3873 33.9586 23.386C34.1639 23.0593 34.4579 22.8027 34.8406 22.616C35.2326 22.4293 35.6619 22.336 36.1286 22.336C37.0432 22.336 37.7759 22.6253 38.3266 23.204C38.8866 23.7827 39.1666 24.59 39.1666 25.626C39.1666 26.3073 39.0266 26.9047 38.7466 27.418C38.4759 27.9313 38.0746 28.3327 37.5426 28.622C37.0199 28.9113 36.3992 29.056 35.6806 29.056C34.2432 29.056 33.2446 28.608 32.6846 27.712C32.1246 26.8067 31.8446 25.5093 31.8446 23.82C31.8446 22.0467 32.1386 20.7307 32.7266 19.872C33.3239 19.004 34.2759 18.57 35.5826 18.57C36.2826 18.57 36.8706 18.71 37.3466 18.99C37.8319 19.2607 38.1959 19.62 38.4386 20.068C38.6906 20.516 38.8399 21.006 38.8866 21.538H36.6606ZM35.5546 24.226C35.1532 24.226 34.8172 24.3473 34.5466 24.59C34.2852 24.8233 34.1546 25.1593 34.1546 25.598C34.1546 26.046 34.2759 26.396 34.5186 26.648C34.7706 26.9 35.1252 27.026 35.5826 27.026C35.9932 27.026 36.3152 26.9047 36.5486 26.662C36.7912 26.41 36.9126 26.0693 36.9126 25.64C36.9126 25.2013 36.7959 24.856 36.5626 24.604C36.3292 24.352 35.9932 24.226 35.5546 24.226Z" fill="#006B8E"/>
<path d="M40.0206 23.75C40.0206 22.1447 40.3286 20.88 40.9446 19.956C41.57 19.032 42.5733 18.57 43.9546 18.57C45.336 18.57 46.3346 19.032 46.9506 19.956C47.576 20.88 47.8886 22.1447 47.8886 23.75C47.8886 25.374 47.576 26.648 46.9506 27.572C46.3346 28.496 45.336 28.958 43.9546 28.958C42.5733 28.958 41.57 28.496 40.9446 27.572C40.3286 26.648 40.0206 25.374 40.0206 23.75ZM45.5366 23.75C45.5366 22.8073 45.434 22.084 45.2286 21.58C45.0233 21.0667 44.5986 20.81 43.9546 20.81C43.3106 20.81 42.886 21.0667 42.6806 21.58C42.4753 22.084 42.3726 22.8073 42.3726 23.75C42.3726 24.3847 42.41 24.912 42.4846 25.332C42.5593 25.7427 42.7086 26.0787 42.9326 26.34C43.166 26.592 43.5066 26.718 43.9546 26.718C44.4026 26.718 44.7386 26.592 44.9626 26.34C45.196 26.0787 45.35 25.7427 45.4246 25.332C45.4993 24.912 45.5366 24.3847 45.5366 23.75Z" fill="#006B8E"/>
<path fill-rule="evenodd" clip-rule="evenodd" d="M51.5 19.5C52.0523 19.5 52.5 19.0523 52.5 18.5C52.5 17.9477 52.0523 17.5 51.5 17.5C50.9477 17.5 50.5 17.9477 50.5 18.5C50.5 19.0523 50.9477 19.5 51.5 19.5ZM51.5 21C52.8807 21 54 19.8807 54 18.5C54 17.1193 52.8807 16 51.5 16C50.1193 16 49 17.1193 49 18.5C49 19.8807 50.1193 21 51.5 21Z" fill="#006B8E"/>
<path fill-rule="evenodd" clip-rule="evenodd" d="M9 30C9.55228 30 10 30.4477 10 31L10 54C10 54.5523 9.55229 55 9 55C8.44772 55 8 54.5523 8 54L8 31C8 30.4477 8.44772 30 9 30Z" fill="#006B8E"/>
<path fill-rule="evenodd" clip-rule="evenodd" d="M63 30C63.5523 30 64 30.4477 64 31V54C64 54.5523 63.5523 55 63 55C62.4477 55 62 54.5523 62 54V31C62 30.4477 62.4477 30 63 30Z" fill="#006B8E"/>
<path fill-rule="evenodd" clip-rule="evenodd" d="M51 31C51.5523 31 52 31.4477 52 32V38C52 38.5523 51.5523 39 51 39C50.4477 39 50 38.5523 50 38V32C50 31.4477 50.4477 31 51 31Z" fill="#006B8E"/>
<path fill-rule="evenodd" clip-rule="evenodd" d="M21 31C21.5523 31 22 31.4477 22 32V38C22 38.5523 21.5523 39 21 39C20.4477 39 20 38.5523 20 38V32C20 31.4477 20.4477 31 21 31Z" fill="#006B8E"/>
<path fill-rule="evenodd" clip-rule="evenodd" d="M62 54C62 54.5637 61.6857 55.371 60.5093 56.3643C59.3422 57.3498 57.5348 58.3274 55.1263 59.1876C50.3268 60.9017 43.5648 62 36 62C28.4352 62 21.6732 60.9017 16.8737 59.1876C14.4652 58.3274 12.6578 57.3498 11.4907 56.3643C10.3143 55.371 10 54.5637 10 54L10 50.2813C8.70982 51.4308 8 52.6858 8 54C8 59.5228 20.536 64 36 64C51.464 64 64 59.5228 64 54C64 52.6858 63.2902 51.4308 62 50.2813V54Z" fill="#006B8E"/>
<path fill-rule="evenodd" clip-rule="evenodd" d="M18 24.6953C18 24.0197 17.3473 23.5352 16.7077 23.7525C11.3437 25.5743 8 28.1477 8 31C8 36.5228 20.536 41 36 41C51.464 41 64 36.5228 64 31C64 28.1477 60.6563 25.5743 55.2923 23.7525C54.6527 23.5352 54 24.0197 54 24.6953C54 25.1346 54.2848 25.522 54.7013 25.6615C56.7662 26.3528 58.8451 27.2305 60.5093 28.6357C61.6857 29.629 62 30.4363 62 31C62 31.5637 61.6857 32.371 60.5093 33.3643C59.3422 34.3498 57.5348 35.3274 55.1263 36.1876C50.3268 37.9017 43.5648 39 36 39C28.4352 39 21.6732 37.9017 16.8737 36.1876C14.4652 35.3274 12.6578 34.3498 11.4907 33.3643C10.3143 32.371 10 31.5637 10 31C10 30.4363 10.3143 29.629 11.4907 28.6357C13.1549 27.2305 15.2338 26.3528 17.2987 25.6615C17.7152 25.522 18 25.1346 18 24.6953Z" fill="#006B8E"/>
<path fill-rule="evenodd" clip-rule="evenodd" d="M24 44C23.4477 44 23 44.4477 23 45V60.823C23.6498 60.9495 24.3169 61.0669 25 61.1748V46H36V62C36.6733 62 37.3402 61.9913 38 61.9742V49.8217L42 52.3671V61.7637C42.6774 61.7093 43.3444 61.6461 44 61.5743V53.6399L47 55.5489V61.1748C47.6831 61.0669 48.3502 60.9495 49 60.823V55C49 54.6581 48.8253 54.3399 48.5369 54.1563L38 47.4511V45C38 44.4477 37.5523 44 37 44H24ZM29 48H27V50H29V48ZM27 52H29V54H27V52ZM29 56H27V58H29V56ZM31 48H33V50H31V48ZM33 52H31V54H33V52ZM31 56H33V58H31V56Z" fill="#006B8E"/>
<path fill-rule="evenodd" clip-rule="evenodd" d="M60.5093 52.083C61.6857 51.0897 62 50.2824 62 49.7187V46C63.2902 47.1495 64 48.4045 64 49.7187C64 53.8469 56.9958 57.3909 47 58.9175V56.8935C50.0745 56.408 52.8258 55.7279 55.1263 54.9063C57.5348 54.0461 59.3422 53.0685 60.5093 52.083ZM44 57.293C43.3444 57.3648 42.6774 57.428 42 57.4823V59.4886C42.6761 59.4358 43.3431 59.3744 44 59.3046V57.293ZM38 57.6929V59.6936C37.3394 59.7102 36.6725 59.7187 36 59.7187V57.7187C36.6733 57.7187 37.3402 57.71 38 57.6929ZM25 56.8935C21.9255 56.408 19.1742 55.7279 16.8737 54.9063C14.4652 54.0461 12.6578 53.0685 11.4907 52.083C10.3143 51.0897 10 50.2824 10 49.7187V46C8.70982 47.1495 8 48.4045 8 49.7187C8 53.8469 15.0042 57.3909 25 58.9175V56.8935Z" fill="#006B8E"/>
<path d="M52 46H54V44H52V46Z" fill="#006B8E"/>
<path d="M15 46H17V44H15V46Z" fill="#006B8E"/>
<path d="M56 46H58V44H56V46Z" fill="#006B8E"/>
</svg>
