<svg width="72" height="72" viewBox="0 0 72 72" fill="none" xmlns="http://www.w3.org/2000/svg">
<path fill-rule="evenodd" clip-rule="evenodd" d="M30.0001 21C30.5524 21 31.0001 21.4477 31.0001 22V25.4648L36.0001 28.7981L41.0001 25.4648V22C41.0001 21.4477 41.4478 21 42.0001 21C42.5524 21 43.0001 21.4477 43.0001 22V26C43.0001 26.3344 42.833 26.6466 42.5548 26.8321L36.5548 30.8321C36.2189 31.056 35.7813 31.056 35.4454 30.8321L29.4454 26.8321C29.1672 26.6466 29.0001 26.3344 29.0001 26V22C29.0001 21.4477 29.4478 21 30.0001 21Z" fill="#006B8E"/>
<path fill-rule="evenodd" clip-rule="evenodd" d="M35.5528 39.1056C35.8343 38.9648 36.1657 38.9648 36.4472 39.1056L44.4472 43.1056C44.786 43.275 45 43.6212 45 44C45 44.3788 44.786 44.725 44.4472 44.8944L36.4472 48.8944C36.1657 49.0352 35.8343 49.0352 35.5528 48.8944L27.5528 44.8944C27.214 44.725 27 44.3788 27 44C27 43.6212 27.214 43.275 27.5528 43.1056L35.5528 39.1056ZM30.2361 44L36 46.882L41.7639 44L36 41.118L30.2361 44Z" fill="#006B8E"/>
<path fill-rule="evenodd" clip-rule="evenodd" d="M27.4743 43.1493C27.7691 42.9671 28.1372 42.9506 28.4472 43.1056L36.4472 47.1056C36.786 47.275 37 47.6212 37 48V57C37 57.3466 36.8205 57.6684 36.5257 57.8506C36.2309 58.0329 35.8628 58.0494 35.5528 57.8944L27.5528 53.8944C27.214 53.725 27 53.3788 27 53V44C27 43.6534 27.1795 43.3316 27.4743 43.1493ZM29 45.618V52.382L35 55.382V48.618L29 45.618Z" fill="#006B8E"/>
<path fill-rule="evenodd" clip-rule="evenodd" d="M44.5257 43.1493C44.8205 43.3316 45 43.6534 45 44V53C45 53.3788 44.786 53.725 44.4472 53.8944L36.4472 57.8944C36.1372 58.0494 35.7691 58.0329 35.4743 57.8507C35.1795 57.6684 35 57.3466 35 57V48C35 47.6212 35.214 47.275 35.5528 47.1056L43.5528 43.1056C43.8628 42.9506 44.2309 42.9671 44.5257 43.1493ZM37 48.618V55.382L43 52.382V45.618L37 48.618Z" fill="#006B8E"/>
<path d="M55 14H57V12H55V14Z" fill="#006B8E"/>
<path d="M49 14H51V12H49V14Z" fill="#006B8E"/>
<path d="M40 14H42V12H40V14Z" fill="#006B8E"/>
<path d="M20 58H22V56H20V58Z" fill="#006B8E"/>
<path d="M35 35H37V33H35V35Z" fill="#006B8E"/>
<path d="M15 58H17V56H15V58Z" fill="#006B8E"/>
<path fill-rule="evenodd" clip-rule="evenodd" d="M9 13C9 10.2386 11.2386 8 14 8H58C60.7614 8 63 10.2386 63 13C63 15.7614 60.7614 18 58 18H14C11.2386 18 9 15.7614 9 13ZM14 10C12.3431 10 11 11.3431 11 13C11 14.6569 12.3431 16 14 16H58C59.6569 16 61 14.6569 61 13C61 11.3431 59.6569 10 58 10H14Z" fill="#006B8E"/>
<path fill-rule="evenodd" clip-rule="evenodd" d="M12 17C12 16.4477 12.4477 16 13 16H59C59.5523 16 60 16.4477 60 17V22C60 22.5523 59.5523 23 59 23H13C12.4477 23 12 22.5523 12 22V17ZM14 18V21H58V18H14Z" fill="#006B8E"/>
<path fill-rule="evenodd" clip-rule="evenodd" d="M30 54L28 53V52H14C11.2386 52 9 54.2386 9 57C9 59.7614 11.2386 62 14 62H58C60.7614 62 63 59.7614 63 57C63 54.2386 60.7614 52 58 52H44V53L42 54H58C59.6569 54 61 55.3431 61 57C61 58.6569 59.6569 60 58 60H14C12.3431 60 11 58.6569 11 57C11 55.3431 12.3431 54 14 54H30Z" fill="#006B8E"/>
<path fill-rule="evenodd" clip-rule="evenodd" d="M13 16C12.4477 16 12 16.4477 12 17V53C12 53.5523 12.4477 54 13 54H30L28 53V52H14V18H58V52H44V53L42 54H59C59.5523 54 60 53.5523 60 53V17C60 16.4477 59.5523 16 59 16H13Z" fill="#006B8E"/>
</svg>
