<svg width="72" height="72" viewBox="0 0 72 72" fill="none" xmlns="http://www.w3.org/2000/svg">
<path fill-rule="evenodd" clip-rule="evenodd" d="M21 25C19.8954 25 19 25.8954 19 27C19 28.1046 19.8954 29 21 29C22.1046 29 23 28.1046 23 27C23 25.8954 22.1046 25 21 25ZM17 27C17 24.7909 18.7909 23 21 23C23.2091 23 25 24.7909 25 27C25 29.2091 23.2091 31 21 31C18.7909 31 17 29.2091 17 27Z" fill="#006B8E"/>
<path fill-rule="evenodd" clip-rule="evenodd" d="M12 21C12 19.3431 13.3431 18 15 18H27C28.6569 18 30 19.3431 30 21V33C30 34.6569 28.6569 36 27 36H15C13.3431 36 12 34.6569 12 33V21ZM15 20C14.4477 20 14 20.4477 14 21V33C14 33.5523 14.4477 34 15 34H27C27.5523 34 28 33.5523 28 33V21C28 20.4477 27.5523 20 27 20H15Z" fill="#006B8E"/>
<path fill-rule="evenodd" clip-rule="evenodd" d="M23.6613 34.0591C24.1809 33.872 24.7538 34.1416 24.9409 34.6613L33.9409 59.6613C34.128 60.1809 33.8584 60.7538 33.3387 60.9409C32.8191 61.128 32.2462 60.8584 32.0591 60.3387L23.0591 35.3387C22.872 34.8191 23.1416 34.2462 23.6613 34.0591Z" fill="#006B8E"/>
<path fill-rule="evenodd" clip-rule="evenodd" d="M18.251 34.032C18.7856 34.1706 19.1066 34.7164 18.968 35.251L11.968 62.251C11.8294 62.7856 11.2836 63.1066 10.749 62.968C10.2144 62.8294 9.8934 62.2836 10.032 61.749L17.032 34.749C17.1706 34.2144 17.7164 33.8934 18.251 34.032Z" fill="#006B8E"/>
<path fill-rule="evenodd" clip-rule="evenodd" d="M21.0476 34.0011C21.5992 34.0274 22.0251 34.4959 21.9989 35.0476L20.9989 56.0476C20.9726 56.5992 20.5041 57.0251 19.9524 56.9989C19.4008 56.9726 18.9749 56.5041 19.0011 55.9524L20.0011 34.9524C20.0274 34.4008 20.4959 33.9749 21.0476 34.0011Z" fill="#006B8E"/>
<path fill-rule="evenodd" clip-rule="evenodd" d="M17.0837 15.5955C17.6691 14.0343 19.1616 13 20.829 13H21.171C22.8384 13 24.3309 14.0343 24.9163 15.5955L24.9363 15.6489C25.1302 16.166 24.8682 16.7424 24.3511 16.9363C23.834 17.1302 23.2576 16.8682 23.0637 16.3511L23.0437 16.2978C22.7509 15.5171 22.0047 15 21.171 15H20.829C19.9953 15 19.2491 15.5171 18.9563 16.2978L18.9363 16.3511C18.7424 16.8682 18.166 17.1302 17.6489 16.9363C17.1318 16.7424 16.8697 16.166 17.0637 15.6489L17.0837 15.5955Z" fill="#006B8E"/>
<path fill-rule="evenodd" clip-rule="evenodd" d="M32.5 29C32.5 28.4477 32.9477 28 33.5 28H53C53.3788 28 53.725 28.214 53.8944 28.5528L62.8944 46.5528C63.0494 46.8628 63.0329 47.2309 62.8507 47.5257C62.6684 47.8205 62.3466 48 62 48H33C32.4477 48 32 47.5523 32 47C32 46.4477 32.4477 46 33 46H60.382L52.382 30H33.5C32.9477 30 32.5 29.5523 32.5 29Z" fill="#006B8E"/>
<path fill-rule="evenodd" clip-rule="evenodd" d="M59.0528 46.1056C59.5468 45.8586 60.1474 46.0588 60.3944 46.5528L62.8944 51.5528C63.0494 51.8628 63.0329 52.2309 62.8507 52.5257C62.6684 52.8205 62.3466 53 62 53H36C35.4477 53 35 52.5523 35 52C35 51.4477 35.4477 51 36 51H60.382L58.6056 47.4472C58.3586 46.9532 58.5588 46.3526 59.0528 46.1056Z" fill="#006B8E"/>
<path fill-rule="evenodd" clip-rule="evenodd" d="M59.0528 51.1056C59.5468 50.8586 60.1474 51.0588 60.3944 51.5528L62.8944 56.5528C63.0494 56.8628 63.0329 57.2309 62.8507 57.5257C62.6684 57.8205 62.3466 58 62 58H39C38.4477 58 38 57.5523 38 57C38 56.4477 38.4477 56 39 56H60.382L58.6056 52.4472C58.3586 51.9532 58.5588 51.3526 59.0528 51.1056Z" fill="#006B8E"/>
<path fill-rule="evenodd" clip-rule="evenodd" d="M45.4 28.2C45.8418 27.8686 46.4686 27.9582 46.8 28.4C48.5305 30.7073 46.8842 34 44 34H40.3541C39.2609 34 38.3503 34.8379 38.2595 35.9272C38.1617 37.101 39.0474 38.126 40.2229 38.1995L47.5317 38.6563C51.3198 38.893 54.7345 41.0198 56.6176 44.3152L57.8682 46.5039C58.1423 46.9834 57.9757 47.5942 57.4961 47.8682C57.0166 48.1423 56.4058 47.9757 56.1318 47.4961L54.8811 45.3075C53.3321 42.5967 50.5231 40.8471 47.407 40.6524L40.0982 40.1956C37.8041 40.0522 36.0755 38.0518 36.2664 35.7612C36.4436 33.6352 38.2208 32 40.3541 32H44C45.2361 32 45.9416 30.5889 45.2 29.6C44.8686 29.1582 44.9582 28.5314 45.4 28.2Z" fill="#006B8E"/>
<path d="M28 14H30V16H28V14Z" fill="#006B8E"/>
<path d="M32 14H34V16H32V14Z" fill="#006B8E"/>
<path d="M32 20H34V22H32V20Z" fill="#006B8E"/>
<path d="M37 17H39V19H37V17Z" fill="#006B8E"/>
</svg>
