<svg width="72" height="72" viewBox="0 0 72 72" fill="none" xmlns="http://www.w3.org/2000/svg">
<path fill-rule="evenodd" clip-rule="evenodd" d="M52.4472 44.0882C52.1657 43.9475 51.8343 43.9475 51.5528 44.0882L43.5528 48.0882C43.214 48.2576 43 48.6039 43 48.9827C43 49.3614 43.214 49.7077 43.5528 49.8771L51.5528 53.8771C51.8343 54.0178 52.1657 54.0178 52.4472 53.8771L60.4472 49.8771C60.786 49.7077 61 49.3614 61 48.9827C61 48.6039 60.786 48.2576 60.4472 48.0882L52.4472 44.0882ZM57.7639 48.9827L52 51.8646L46.2361 48.9827L52 46.1007L57.7639 48.9827Z" fill="#006B8E"/>
<path fill-rule="evenodd" clip-rule="evenodd" d="M60.5257 48.132C60.2309 47.9498 59.8628 47.9332 59.5528 48.0882L51.5528 52.0882C51.214 52.2576 51 52.6039 51 52.9826V61.9827C51 62.3292 51.1795 62.6511 51.4743 62.8333C51.7691 63.0155 52.1372 63.0321 52.4472 62.8771L60.4472 58.8771C60.786 58.7077 61 58.3614 61 57.9827V48.9827C61 48.6361 60.8205 48.3142 60.5257 48.132ZM59 50.6007V57.3646L53 60.3646V53.6007L59 50.6007Z" fill="#006B8E"/>
<path fill-rule="evenodd" clip-rule="evenodd" d="M43.4743 48.132C43.1795 48.3142 43 48.6361 43 48.9827V57.9827C43 58.3614 43.214 58.7077 43.5528 58.8771L51.5528 62.8771C51.8628 63.0321 52.2309 63.0155 52.5257 62.8333C52.8205 62.6511 53 62.3292 53 61.9827V52.9827C53 52.6039 52.786 52.2576 52.4472 52.0882L44.4472 48.0882C44.1372 47.9332 43.7691 47.9498 43.4743 48.132ZM51 53.6007V60.3646L45 57.3646V50.6007L51 53.6007Z" fill="#006B8E"/>
<path fill-rule="evenodd" clip-rule="evenodd" d="M44.4472 31.1056C44.1657 30.9648 43.8343 30.9648 43.5528 31.1056L35.5528 35.1056C35.214 35.275 35 35.6212 35 36C35 36.3788 35.214 36.725 35.5528 36.8944L43.5528 40.8944C43.8343 41.0352 44.1657 41.0352 44.4472 40.8944L52.4472 36.8944C52.786 36.725 53 36.3788 53 36C53 35.6212 52.786 35.275 52.4472 35.1056L44.4472 31.1056ZM49.7639 36L44 38.882L38.2361 36L44 33.118L49.7639 36Z" fill="#006B8E"/>
<path fill-rule="evenodd" clip-rule="evenodd" d="M52.5257 35.1493C52.2309 34.9671 51.8628 34.9506 51.5528 35.1056L43.5528 39.1056C43.214 39.275 43 39.6212 43 40V49C43 49.3466 43.1795 49.6684 43.4743 49.8506C43.7691 50.0329 44.1372 50.0494 44.4472 49.8944L52.4472 45.8944C52.786 45.725 53 45.3788 53 45V36C53 35.6534 52.8205 35.3316 52.5257 35.1493ZM51 37.618V44.382L45 47.382V40.618L51 37.618Z" fill="#006B8E"/>
<path fill-rule="evenodd" clip-rule="evenodd" d="M35.4743 35.1493C35.1795 35.3316 35 35.6534 35 36V45C35 45.3788 35.214 45.725 35.5528 45.8944L43.5528 49.8944C43.8628 50.0494 44.2309 50.0329 44.5257 49.8507C44.8205 49.6684 45 49.3466 45 49V40C45 39.6212 44.786 39.275 44.4472 39.1056L36.4472 35.1056C36.1372 34.9506 35.7691 34.9671 35.4743 35.1493ZM43 40.618V47.382L37 44.382V37.618L43 40.618Z" fill="#006B8E"/>
<path d="M43 49.618V57.9827C43 58.3614 43.214 58.7077 43.5528 58.8771L35.5528 54.8771C35.214 54.7077 35 54.3614 35 53.9826V45C35 45.3788 35.214 45.725 35.5528 45.8944L43 49.618Z" fill="#006B8E"/>
<path fill-rule="evenodd" clip-rule="evenodd" d="M22 19C22.5523 19 23 19.4477 23 20V23.1975C23.4171 23.3642 23.7868 23.6225 24.0821 23.9179C24.5975 24.4332 25 25.1748 25 26C25 26.8252 24.5975 27.5668 24.0821 28.0821C23.5668 28.5975 22.8252 29 22 29C21.1748 29 20.4332 28.5975 19.9179 28.0821C19.4025 27.5668 19 26.8252 19 26C19 25.4477 19.4477 25 20 25C20.5523 25 21 25.4477 21 26C21 26.1748 21.0975 26.4332 21.3321 26.6679C21.5668 26.9025 21.8252 27 22 27C22.1748 27 22.4332 26.9025 22.6679 26.6679C22.9025 26.4332 23 26.1748 23 26C23 25.8252 22.9025 25.5668 22.6679 25.3321C22.4332 25.0975 22.1748 25 22 25C21.4477 25 21 24.5523 21 24V20C21 19.4477 21.4477 19 22 19Z" fill="#006B8E"/>
<path fill-rule="evenodd" clip-rule="evenodd" d="M22.4472 34.1056C22.1657 33.9648 21.8343 33.9648 21.5528 34.1056L13.5528 38.1056C13.214 38.275 13 38.6212 13 39C13 39.3788 13.214 39.725 13.5528 39.8944L21.5528 43.8944C21.8343 44.0352 22.1657 44.0352 22.4472 43.8944L30.4472 39.8944C30.786 39.725 31 39.3788 31 39C31 38.6212 30.786 38.275 30.4472 38.1056L22.4472 34.1056ZM27.7639 39L22 41.882L16.2361 39L22 36.118L27.7639 39Z" fill="#006B8E"/>
<path fill-rule="evenodd" clip-rule="evenodd" d="M30.5257 38.1493C30.2309 37.9671 29.8628 37.9506 29.5528 38.1056L21.5528 42.1056C21.214 42.275 21 42.6212 21 43V52C21 52.3466 21.1795 52.6684 21.4743 52.8506C21.7691 53.0329 22.1372 53.0494 22.4472 52.8944L30.4472 48.8944C30.786 48.725 31 48.3788 31 48V39C31 38.6534 30.8205 38.3316 30.5257 38.1493ZM29 40.618V47.382L23 50.382V43.618L29 40.618Z" fill="#006B8E"/>
<path fill-rule="evenodd" clip-rule="evenodd" d="M13.4743 38.1493C13.1795 38.3316 13 38.6534 13 39V48C13 48.3788 13.214 48.725 13.5528 48.8944L21.5528 52.8944C21.8628 53.0494 22.2309 53.0329 22.5257 52.8506C22.8205 52.6684 23 52.3466 23 52V43C23 42.6212 22.786 42.275 22.4472 42.1056L14.4472 38.1056C14.1372 37.9506 13.7691 37.9671 13.4743 38.1493ZM21 43.618V50.382L15 47.382V40.618L21 43.618Z" fill="#006B8E"/>
<path fill-rule="evenodd" clip-rule="evenodd" d="M20.5406 27.7178C20.6658 27.2923 21.0564 27 21.5 27H22.5C22.9436 27 23.3342 27.2923 23.4594 27.7178L25.9594 36.2178L24.0406 36.7822L22 29.844L19.9594 36.7822L18.0406 36.2178L20.5406 27.7178Z" fill="#006B8E"/>
<path fill-rule="evenodd" clip-rule="evenodd" d="M20 11V17.7639L22 18.7639L24 17.7639V11H20ZM19 9C18.4477 9 18 9.44772 18 10V18.382C18 18.7607 18.214 19.107 18.5528 19.2764L21.5528 20.7764C21.8343 20.9172 22.1657 20.9172 22.4472 20.7764L25.4472 19.2764C25.786 19.107 26 18.7607 26 18.382V10C26 9.44772 25.5523 9 25 9H19Z" fill="#006B8E"/>
<path d="M26 11H58.5C59.8807 11 61 12.1193 61 13.5C61 14.8807 59.8807 16 58.5 16H26V17.382C26 17.6103 25.9222 17.8269 25.7862 18H58.5C60.9853 18 63 15.9853 63 13.5C63 11.0147 60.9853 9 58.5 9H25C25.5523 9 26 9.44772 26 10V11Z" fill="#006B8E"/>
<path d="M18 11V10C18 9.44772 18.4477 9 19 9H13.5C11.0147 9 9 11.0147 9 13.5C9 15.9853 11.0147 18 13.5 18H18.2138C18.0778 17.8269 18 17.6103 18 17.382V16H13.5C12.1193 16 11 14.8807 11 13.5C11 12.1193 12.1193 11 13.5 11H18Z" fill="#006B8E"/>
<path fill-rule="evenodd" clip-rule="evenodd" d="M52.1863 16.4188L57.1863 9.41876L58.8137 10.5812L53.8137 17.5812L52.1863 16.4188Z" fill="#006B8E"/>
<path fill-rule="evenodd" clip-rule="evenodd" d="M47.1863 16.4188L52.1863 9.41876L53.8137 10.5812L48.8137 17.5812L47.1863 16.4188Z" fill="#006B8E"/>
<path fill-rule="evenodd" clip-rule="evenodd" d="M42.1863 16.4188L47.1863 9.41876L48.8137 10.5812L43.8137 17.5812L42.1863 16.4188Z" fill="#006B8E"/>
</svg>
