<svg width="72" height="72" viewBox="0 0 72 72" fill="none" xmlns="http://www.w3.org/2000/svg">
<path fill-rule="evenodd" clip-rule="evenodd" d="M11 54H61V60H11V54ZM13 56V58H59V56H13Z" fill="#006B8E"/>
<path fill-rule="evenodd" clip-rule="evenodd" d="M36 24C31.5817 24 28 27.5817 28 32C28 36.4183 31.5817 40 36 40C40.4183 40 44 36.4183 44 32C44 27.5817 40.4183 24 36 24ZM26 32C26 26.4771 30.4772 22 36 22C41.5229 22 46 26.4771 46 32C46 37.5228 41.5229 42 36 42C30.4772 42 26 37.5228 26 32Z" fill="#006B8E"/>
<path fill-rule="evenodd" clip-rule="evenodd" d="M36 28C33.7909 28 32 29.7909 32 32C32 34.2091 33.7909 36 36 36C38.2091 36 40 34.2091 40 32C40 29.7909 38.2091 28 36 28ZM30 32C30 28.6863 32.6863 26 36 26C39.3137 26 42 28.6863 42 32C42 35.3137 39.3137 38 36 38C32.6863 38 30 35.3137 30 32Z" fill="#006B8E"/>
<path d="M22 50H24V48H22V50Z" fill="#006B8E"/>
<path d="M46 50H48V48H46V50Z" fill="#006B8E"/>
<path d="M51 50H53V48H51V50Z" fill="#006B8E"/>
<path fill-rule="evenodd" clip-rule="evenodd" d="M15 34C15 22.402 24.402 13 36 13C47.598 13 57 22.402 57 34V56H15V34ZM36 15C25.5066 15 17 23.5066 17 34V54H55V34C55 23.5066 46.4934 15 36 15Z" fill="#006B8E"/>
<path fill-rule="evenodd" clip-rule="evenodd" d="M42 22.3923C40.1758 23.4455 38.1064 24 36 24C33.8936 24 31.8242 23.4455 30 22.3923C28.1758 21.3391 26.6609 19.8242 25.6077 18L27.3397 17C28.2174 18.5202 29.4798 19.7826 31 20.6603C32.5202 21.5379 34.2446 22 36 22C37.7554 22 39.4798 21.5379 41 20.6603C42.5202 19.7826 43.7826 18.5202 44.6603 17L46.3923 18C45.3391 19.8242 43.8242 21.3391 42 22.3923Z" fill="#006B8E"/>
</svg>
