<svg width="72" height="72" viewBox="0 0 72 72" fill="none" xmlns="http://www.w3.org/2000/svg">
<path fill-rule="evenodd" clip-rule="evenodd" d="M29.4454 12.1679C29.6097 12.0584 29.8027 12 30.0001 12H42.0001C42.1975 12 42.3905 12.0584 42.5548 12.1679L48.4434 16.0937L57.3162 19.0513C57.7245 19.1874 57.9999 19.5696 57.9999 20V27C57.9999 27.4833 57.6543 27.8974 57.1788 27.9839L46.4863 29.928L42.707 33.7071C42.5194 33.8946 42.2651 34 41.9999 34H30.0003C29.7351 34 29.4807 33.8946 29.2932 33.7071L25.5139 29.928L14.8214 27.9839C14.3459 27.8974 14.0003 27.4833 14.0003 27V20C14.0003 19.5696 14.2757 19.1874 14.6841 19.0513L23.5568 16.0937L29.4454 12.1679ZM30.3029 14L24.5548 17.832C24.4809 17.8813 24.4007 17.9206 24.3163 17.9487L16.0003 20.7207V26.1654L26.179 28.0161C26.3791 28.0525 26.5634 28.1491 26.7072 28.2929L30.4145 32H41.5857L45.293 28.2929C45.4368 28.1491 45.6211 28.0525 45.8212 28.0161L55.9999 26.1654V20.7207L47.6839 17.9487C47.5995 17.9206 47.5193 17.8813 47.4454 17.832L41.6973 14H30.3029Z" fill="#006B8E"/>
<path fill-rule="evenodd" clip-rule="evenodd" d="M24 39C24 38.4477 24.4477 38 25 38H47C47.5523 38 48 38.4477 48 39V61C48 61.5523 47.5523 62 47 62H25C24.4477 62 24 61.5523 24 61V39ZM26 40V60H46V40H26Z" fill="#006B8E"/>
<path fill-rule="evenodd" clip-rule="evenodd" d="M55.0001 27C55.5524 27 56.0001 27.4477 56.0001 28V47C56.0001 47.2652 55.8948 47.5196 55.7072 47.7071L52.7072 50.7071C52.3167 51.0976 51.6835 51.0976 51.293 50.7071C50.9025 50.3166 50.9025 49.6834 51.293 49.2929L54.0001 46.5858V28C54.0001 27.4477 54.4478 27 55.0001 27Z" fill="#006B8E"/>
<path fill-rule="evenodd" clip-rule="evenodd" d="M55 10C55.5523 10 56 10.4477 56 11V19C56 19.5523 55.5523 20 55 20C54.4477 20 54 19.5523 54 19V11C54 10.4477 54.4477 10 55 10Z" fill="#006B8E"/>
<path fill-rule="evenodd" clip-rule="evenodd" d="M50 11C50 10.4477 50.4477 10 51 10H59C59.5523 10 60 10.4477 60 11C60 11.5523 59.5523 12 59 12H51C50.4477 12 50 11.5523 50 11Z" fill="#006B8E"/>
<path fill-rule="evenodd" clip-rule="evenodd" d="M17 27C16.4477 27 16 27.4477 16 28V47C16 47.2652 16.1054 47.5196 16.2929 47.7071L19.2929 50.7071C19.6834 51.0976 20.3166 51.0976 20.7071 50.7071C21.0976 50.3166 21.0976 49.6834 20.7071 49.2929L18 46.5858V28C18 27.4477 17.5523 27 17 27Z" fill="#006B8E"/>
<path fill-rule="evenodd" clip-rule="evenodd" d="M17 10C17.5523 10 18 10.4477 18 11V19C18 19.5523 17.5523 20 17 20C16.4477 20 16 19.5523 16 19V11C16 10.4477 16.4477 10 17 10Z" fill="#006B8E"/>
<path fill-rule="evenodd" clip-rule="evenodd" d="M12 11C12 10.4477 12.4477 10 13 10H21C21.5523 10 22 10.4477 22 11C22 11.5523 21.5523 12 21 12H13C12.4477 12 12 11.5523 12 11Z" fill="#006B8E"/>
<path fill-rule="evenodd" clip-rule="evenodd" d="M36 19C33.7909 19 32 20.7909 32 23C32 25.2091 33.7909 27 36 27C38.2091 27 40 25.2091 40 23C40 20.7909 38.2091 19 36 19ZM30 23C30 19.6863 32.6863 17 36 17C39.3137 17 42 19.6863 42 23C42 26.3137 39.3137 29 36 29C32.6863 29 30 26.3137 30 23Z" fill="#006B8E"/>
<path d="M43 43H41V45H43V43Z" fill="#006B8E"/>
<path d="M37 22H35V24H37V22Z" fill="#006B8E"/>
<path d="M43 47H41V49H43V47Z" fill="#006B8E"/>
<path d="M39 47H37V49H39V47Z" fill="#006B8E"/>
<path d="M30 56H28V58H30V56Z" fill="#006B8E"/>
</svg>
