<svg width="72" height="72" viewBox="0 0 72 72" fill="none" xmlns="http://www.w3.org/2000/svg">
<path fill-rule="evenodd" clip-rule="evenodd" d="M41.0001 15C41.0001 14.4477 41.4478 14 42.0001 14H54.0001C54.5524 14 55.0001 14.4477 55.0001 15V21C55.0001 21.5523 54.5524 22 54.0001 22C53.4478 22 53.0001 21.5523 53.0001 21V16H42.0001C41.4478 16 41.0001 15.5523 41.0001 15Z" fill="#006B8E"/>
<path fill-rule="evenodd" clip-rule="evenodd" d="M14.4308 20.1778C14.8849 19.8634 15.5078 19.9767 15.8222 20.4308L24.8222 33.4308C25.1366 33.8849 25.0233 34.5078 24.5692 34.8222C24.1151 35.1366 23.4922 35.0233 23.1778 34.5692L14.1778 21.5692C13.8634 21.1151 13.9767 20.4922 14.4308 20.1778Z" fill="#006B8E"/>
<path fill-rule="evenodd" clip-rule="evenodd" d="M20.4307 18.1778C20.8848 17.8635 21.5077 17.9767 21.8221 18.4308L30.8221 31.4308C31.1364 31.8849 31.0232 32.5078 30.5691 32.8222C30.115 33.1366 29.4921 33.0233 29.1777 32.5692L20.1777 19.5692C19.8633 19.1151 19.9766 18.4922 20.4307 18.1778Z" fill="#006B8E"/>
<path fill-rule="evenodd" clip-rule="evenodd" d="M21.0001 12C21.0001 11.4477 21.4478 11 22.0001 11H39.0001C41.2066 11 43.0001 12.7935 43.0001 15C43.0001 17.2065 41.2066 19 39.0001 19H22.0001C21.4478 19 21.0001 18.5523 21.0001 18C21.0001 17.4477 21.4478 17 22.0001 17H39.0001C40.102 17 41.0001 16.102 41.0001 15C41.0001 13.898 40.102 13 39.0001 13H22.0001C21.4478 13 21.0001 12.5523 21.0001 12Z" fill="#006B8E"/>
<path fill-rule="evenodd" clip-rule="evenodd" d="M25 42C25.5523 42 26 42.4477 26 43V54H32V43C32 42.4477 32.4477 42 33 42C33.5523 42 34 42.4477 34 43V55C34 55.5523 33.5523 56 33 56H25C24.4477 56 24 55.5523 24 55V43C24 42.4477 24.4477 42 25 42Z" fill="#006B8E"/>
<path fill-rule="evenodd" clip-rule="evenodd" d="M16 10C13.2386 10 11 12.2386 11 15C11 17.7614 13.2386 20 16 20C18.7614 20 21 17.7614 21 15C21 12.2386 18.7614 10 16 10ZM9 15C9 11.134 12.134 8 16 8C19.866 8 23 11.134 23 15C23 18.866 19.866 22 16 22C12.134 22 9 18.866 9 15Z" fill="#006B8E"/>
<path fill-rule="evenodd" clip-rule="evenodd" d="M28.9999 33C26.2385 33 23.9999 35.2386 23.9999 38C23.9999 40.7614 26.2385 43 28.9999 43C31.7614 43 33.9999 40.7614 33.9999 38C33.9999 35.2386 31.7614 33 28.9999 33ZM21.9999 38C21.9999 34.134 25.1339 31 28.9999 31C32.8659 31 35.9999 34.134 35.9999 38C35.9999 41.866 32.8659 45 28.9999 45C25.1339 45 21.9999 41.866 21.9999 38Z" fill="#006B8E"/>
<path fill-rule="evenodd" clip-rule="evenodd" d="M48 25.8521C48 22.6201 50.62 20 53.8521 20C57.2475 20 60 22.7525 60 26.1479V27.9758C60 28.5281 59.5523 28.9758 59 28.9758C58.4477 28.9758 58 28.5281 58 27.9758V26.1479C58 23.8571 56.1429 22 53.8521 22C51.7246 22 50 23.7247 50 25.8521L50 28C50 28.5523 49.5523 29 49 29C48.4477 29 48 28.5523 48 28L48 25.8521Z" fill="#006B8E"/>
<path fill-rule="evenodd" clip-rule="evenodd" d="M53.5527 32.1056C53.8343 31.9648 54.1656 31.9648 54.4472 32.1056L62.4472 36.1056C62.7859 36.275 62.9999 36.6212 62.9999 37C62.9999 37.3788 62.7859 37.7251 62.4472 37.8944L54.4472 41.8944C54.1656 42.0352 53.8343 42.0352 53.5527 41.8944L45.5527 37.8944C45.2139 37.7251 44.9999 37.3788 44.9999 37C44.9999 36.6212 45.2139 36.275 45.5527 36.1056L53.5527 32.1056ZM48.236 37L53.9999 39.882L59.7639 37L53.9999 34.118L48.236 37Z" fill="#006B8E"/>
<path fill-rule="evenodd" clip-rule="evenodd" d="M45.4742 36.1494C45.769 35.9671 46.1372 35.9506 46.4472 36.1056L54.4472 40.1056C54.7859 40.275 54.9999 40.6212 54.9999 41V50C54.9999 50.3466 54.8205 50.6684 54.5257 50.8507C54.2309 51.0329 53.8627 51.0494 53.5527 50.8944L45.5527 46.8944C45.2139 46.725 44.9999 46.3788 44.9999 46V37C44.9999 36.6534 45.1794 36.3316 45.4742 36.1494ZM46.9999 38.618V45.382L52.9999 48.382V41.618L46.9999 38.618Z" fill="#006B8E"/>
<path fill-rule="evenodd" clip-rule="evenodd" d="M62.5258 36.1494C62.8206 36.3316 62.9999 36.6534 62.9999 37L63.0001 46C63.0001 46.3788 62.7861 46.725 62.4473 46.8944L54.4473 50.8944C54.1373 51.0494 53.7692 51.0329 53.4744 50.8507C53.1796 50.6684 53.0001 50.3466 53.0001 50V41C53.0001 40.6212 53.2141 40.275 53.5529 40.1056L61.5529 36.1056C61.8629 35.9506 62.231 35.9671 62.5258 36.1494ZM55.0001 41.618V48.382L61.0001 45.382V38.618L55.0001 41.618Z" fill="#006B8E"/>
<path d="M28 39H30V37H28V39Z" fill="#006B8E"/>
<path d="M15 16H17V14H15V16Z" fill="#006B8E"/>
<path d="M54 63H56V61H54V63Z" fill="#006B8E"/>
<path d="M60 63H62V61H60V63Z" fill="#006B8E"/>
<path d="M60 58H62V56H60V58Z" fill="#006B8E"/>
<path fill-rule="evenodd" clip-rule="evenodd" d="M14 59C14 56.2386 16.2386 54 19 54H39C41.7614 54 44 56.2386 44 59V62C44 62.5523 43.5523 63 43 63H15C14.4477 63 14 62.5523 14 62V59ZM19 56C17.3431 56 16 57.3431 16 59V61H42V59C42 57.3431 40.6569 56 39 56H19Z" fill="#006B8E"/>
</svg>
