<svg width="72" height="72" viewBox="0 0 72 72" fill="none" xmlns="http://www.w3.org/2000/svg">
<path fill-rule="evenodd" clip-rule="evenodd" d="M18.0624 18.002C18.6136 18.0364 19.0326 18.5112 18.9981 19.0624L17.9981 35.0624C17.9652 35.5894 17.5281 36 17.0001 36H12.0001V37.0007L20.946 37.0074L20.0014 19.0525C19.9724 18.501 20.396 18.0304 20.9475 18.0014C21.499 17.9724 21.9697 18.3959 21.9987 18.9475L22.9987 37.9556C23.0131 38.2297 22.9142 38.4976 22.7253 38.6967C22.5363 38.8957 22.2738 39.0083 21.9993 39.0081L10.9993 39C10.4473 38.9996 10.0001 38.552 10.0001 38V35C10.0001 34.4477 10.4478 34 11.0001 34H16.0606L17.002 18.9376C17.0365 18.3864 17.5112 17.9675 18.0624 18.002Z" fill="#006B8E"/>
<path fill-rule="evenodd" clip-rule="evenodd" d="M12.1644 37.0136C12.7091 37.1044 13.0772 37.6196 12.9864 38.1644L12.1508 43.178C11.6428 46.2257 13.993 49 17.0827 49H17.6754C19.8276 49 21.7383 47.6229 22.4188 45.5812L22.6126 45H19C18.4477 45 18 44.5523 18 44V39C18 38.4477 18.4477 38 19 38C19.5523 38 20 38.4477 20 39V43H22.6126C23.9777 43 24.9416 44.3374 24.5099 45.6325L24.3162 46.2136C23.3634 49.072 20.6884 51 17.6754 51H17.0827C12.7572 51 9.46686 47.1159 10.178 42.8492L11.0136 37.8356C11.1044 37.2908 11.6196 36.9228 12.1644 37.0136Z" fill="#006B8E"/>
<path fill-rule="evenodd" clip-rule="evenodd" d="M34.0001 40.0832C34.0001 35.1126 38.0295 31.0832 43.0001 31.0832H47.7631C52.3855 31.0832 56.2563 34.5848 56.7181 39.184L57.9949 51.9001C58.0501 52.4496 57.6493 52.9398 57.0998 52.995C56.5503 53.0502 56.0601 52.6494 56.0049 52.0999L54.7281 39.3838C54.3689 35.8067 51.3583 33.0832 47.7631 33.0832H43.0001C39.1341 33.0832 36.0001 36.2172 36.0001 40.0832V52C36.0001 52.5523 35.5524 53 35.0001 53C34.4478 53 34.0001 52.5523 34.0001 52V40.0832Z" fill="#006B8E"/>
<path fill-rule="evenodd" clip-rule="evenodd" d="M23.235 15.3559C23.5908 14.9334 24.2216 14.8793 24.6441 15.2351L43.6441 31.2351C44.0665 31.5908 44.1206 32.2217 43.7649 32.6441C43.4091 33.0666 42.7783 33.1206 42.3558 32.7649L23.3558 16.7649C22.9334 16.4092 22.8793 15.7783 23.235 15.3559Z" fill="#006B8E"/>
<path fill-rule="evenodd" clip-rule="evenodd" d="M21.3642 18.2281C21.7905 17.877 22.4207 17.938 22.7718 18.3643L36.7718 35.3643C37.1229 35.7906 37.0619 36.4209 36.6356 36.7719C36.2093 37.123 35.579 37.062 35.228 36.6357L21.228 19.6357C20.8769 19.2094 20.9378 18.5792 21.3642 18.2281Z" fill="#006B8E"/>
<path fill-rule="evenodd" clip-rule="evenodd" d="M11 62C11 61.4477 11.4477 61 12 61H39C39.5523 61 40 61.4477 40 62C40 62.5523 39.5523 63 39 63H12C11.4477 63 11 62.5523 11 62Z" fill="#006B8E"/>
<path d="M13 59H15V57H13V59Z" fill="#006B8E"/>
<path d="M17 59H19V57H17V59Z" fill="#006B8E"/>
<path d="M25 59H27V57H25V59Z" fill="#006B8E"/>
<path d="M19 16H21V14H19V16Z" fill="#006B8E"/>
<path d="M13 55H15V53H13V55Z" fill="#006B8E"/>
<path fill-rule="evenodd" clip-rule="evenodd" d="M45 37C45.5523 37 46 37.4477 46 38V46C46 46.5523 45.5523 47 45 47C44.4477 47 44 46.5523 44 46V38C44 37.4477 44.4477 37 45 37Z" fill="#006B8E"/>
<path fill-rule="evenodd" clip-rule="evenodd" d="M20 18C21.6569 18 23 16.6569 23 15C23 13.3431 21.6569 12 20 12C18.3432 12 17 13.3431 17 15C17 16.6569 18.3432 18 20 18ZM20 20C22.7615 20 25 17.7614 25 15C25 12.2386 22.7615 10 20 10C17.2386 10 15 12.2386 15 15C15 17.7614 17.2386 20 20 20Z" fill="#006B8E"/>
<path fill-rule="evenodd" clip-rule="evenodd" d="M31 57C31 53.6863 33.6863 51 37 51H56C59.3137 51 62 53.6863 62 57C62 60.3137 59.3137 63 56 63H37C33.6863 63 31 60.3137 31 57ZM37 53C34.7908 53 33 54.7909 33 57C33 59.2091 34.7908 61 37 61H56C58.2091 61 60 59.2091 60 57C60 54.7909 58.2091 53 56 53H37Z" fill="#006B8E"/>
<path fill-rule="evenodd" clip-rule="evenodd" d="M39.8982 38.7519C40.0233 37.7511 40.8741 37 41.8828 37H49.1172C50.1258 37 50.9766 37.7511 51.1018 38.7519L51.8518 44.7519C52.001 45.9456 51.0702 47 49.8672 47H41.1328C39.9298 47 38.999 45.9456 39.1482 44.7519L39.8982 38.7519ZM49.1172 39H41.8828L41.1328 45H49.8672L49.1172 39Z" fill="#006B8E"/>
<path fill-rule="evenodd" clip-rule="evenodd" d="M34 57C34 55.3431 35.3431 54 37 54H56C57.6568 54 59 55.3431 59 57C59 58.6569 57.6568 60 56 60H37C35.3431 60 34 58.6569 34 57ZM37 56C36.4477 56 36 56.4477 36 57C36 57.5523 36.4477 58 37 58H56C56.5523 58 57 57.5523 57 57C57 56.4477 56.5523 56 56 56H37Z" fill="#006B8E"/>
<path fill-rule="evenodd" clip-rule="evenodd" d="M53 57C53 55.3431 54.3431 54 56 54C57.6568 54 59 55.3431 59 57C59 58.6569 57.6568 60 56 60C54.3431 60 53 58.6569 53 57ZM56 56C55.4477 56 55 56.4477 55 57C55 57.5523 55.4477 58 56 58C56.5523 58 57 57.5523 57 57C57 56.4477 56.5523 56 56 56Z" fill="#006B8E"/>
</svg>
