<svg width="72" height="72" viewBox="0 0 72 72" fill="none" xmlns="http://www.w3.org/2000/svg">
<path fill-rule="evenodd" clip-rule="evenodd" d="M53.7992 9.02041C54.1284 8.95288 54.4695 9.05525 54.7072 9.29291L62.7072 17.2929L61.293 18.7071L53.6737 11.0878L15.201 18.9796L14.7992 17.0204L53.7992 9.02041Z" fill="#006B8E"/>
<path fill-rule="evenodd" clip-rule="evenodd" d="M54.8481 10.53L49.8481 18.53L48.1521 17.47L53.1521 9.47002L54.8481 10.53Z" fill="#006B8E"/>
<path fill-rule="evenodd" clip-rule="evenodd" d="M9.2278 17.3646C9.41775 17.1338 9.70103 17 9.99999 17H62C62.5523 17 63 17.4477 63 18V23C63 23.5523 62.5523 24 62 24H10.9812C10.5032 24 10.092 23.6617 9.99994 23.1926L9.01871 18.1926C8.96114 17.8992 9.03784 17.5955 9.2278 17.3646ZM11.2153 19L11.8041 22H61V19H11.2153Z" fill="#006B8E"/>
<path fill-rule="evenodd" clip-rule="evenodd" d="M48.0001 23H50.0001V55H53.0001V23H55.0001V57H48.0001V23Z" fill="#006B8E"/>
<path fill-rule="evenodd" clip-rule="evenodd" d="M26.0001 27V23H28.0001V27H26.0001Z" fill="#006B8E"/>
<path fill-rule="evenodd" clip-rule="evenodd" d="M24.0514 26.6838C24.1875 26.2754 24.5697 26 25.0001 26H29.0001C29.4305 26 29.8127 26.2754 29.9488 26.6838L30.9488 29.6838C31.0172 29.8891 31.0172 30.111 30.9488 30.3162L29.9488 33.3162C29.8127 33.7246 29.4305 34 29.0001 34H25.0001C24.5697 34 24.1875 33.7246 24.0514 33.3162L23.0514 30.3162C22.983 30.111 22.983 29.8891 23.0514 29.6838L24.0514 26.6838ZM25.7209 28L25.0542 30L25.7209 32H28.2793L28.946 30L28.2793 28H25.7209Z" fill="#006B8E"/>
<path fill-rule="evenodd" clip-rule="evenodd" d="M27.0001 33C27.5524 33 28.0001 33.4477 28.0001 34V37.1975C28.4172 37.3643 28.7868 37.6226 29.0822 37.9179C29.5975 38.4333 30.0001 39.1748 30.0001 40C30.0001 40.8252 29.5975 41.5668 29.0822 42.0821C28.5669 42.5975 27.8253 43 27.0001 43C26.1749 43 25.4333 42.5975 24.918 42.0821C24.4026 41.5668 24.0001 40.8252 24.0001 40C24.0001 39.4477 24.4478 39 25.0001 39C25.5524 39 26.0001 39.4477 26.0001 40C26.0001 40.1748 26.0975 40.4333 26.3322 40.6679C26.5669 40.9026 26.8253 41 27.0001 41C27.1749 41 27.4333 40.9026 27.668 40.6679C27.9026 40.4333 28.0001 40.1748 28.0001 40C28.0001 39.8252 27.9026 39.5668 27.668 39.3321C27.4333 39.0975 27.1749 39 27.0001 39C26.4478 39 26.0001 38.5523 26.0001 38V34C26.0001 33.4477 26.4478 33 27.0001 33Z" fill="#006B8E"/>
<path fill-rule="evenodd" clip-rule="evenodd" d="M11.293 37.2929C11.4805 37.1054 11.7349 37 12.0001 37H18.0001C18.2658 37 18.5205 37.1057 18.7081 37.2938C18.8957 37.4819 19.0008 37.7369 19.0001 38.0026L18.9819 45H23.0001C23.5524 45 24.0001 45.4477 24.0001 46V51H28.0001V49C28.0001 48.7578 28.088 48.5238 28.2475 48.3415L35.2475 40.3415C35.4374 40.1245 35.7117 40 36.0001 40C36.2885 40 36.5628 40.1245 36.7527 40.3415L43.7527 48.3415C43.9122 48.5238 44.0001 48.7578 44.0001 49V61C44.0001 61.5523 43.5524 62 43.0001 62H12.0002C11.4479 62 11.0002 61.5523 11.0002 61L11.0001 38C11.0001 37.7348 11.1055 37.4804 11.293 37.2929ZM13.0001 39L13.0002 60H42.0001V49.3758L36.0001 42.5186L30.0001 49.3758V52C30.0001 52.5523 29.5524 53 29.0001 53H23.0001C22.4478 53 22.0001 52.5523 22.0001 52V47H17.9793C17.7137 47 17.4589 46.8943 17.2713 46.7062C17.0837 46.5181 16.9786 46.2631 16.9793 45.9974L16.9975 39H13.0001Z" fill="#006B8E"/>
<path d="M37.0001 47H35.0001V49H37.0001V47Z" fill="#006B8E"/>
<path d="M34.0001 51H32.0001V53H34.0001V51Z" fill="#006B8E"/>
<path d="M17.0001 48H15.0001V50H17.0001V48Z" fill="#006B8E"/>
<path d="M17.0001 56H15.0001V58H17.0001V56Z" fill="#006B8E"/>
<path d="M21.0001 56H19.0001V58H21.0001V56Z" fill="#006B8E"/>
<path d="M17.0001 52H15.0001V54H17.0001V52Z" fill="#006B8E"/>
<path d="M40.0001 51H38.0001V53H40.0001V51Z" fill="#006B8E"/>
<path fill-rule="evenodd" clip-rule="evenodd" d="M47.293 55.2929C47.4806 55.1054 47.7349 55 48.0001 55H55.0001C55.2654 55 55.5197 55.1054 55.7073 55.2929L60.7073 60.2929C60.9932 60.5789 61.0788 61.009 60.924 61.3827C60.7692 61.7564 60.4046 62 60.0001 62L43.0001 62C42.5956 62 42.2309 61.7564 42.0761 61.3827C41.9213 61.009 42.0069 60.5789 42.2929 60.2929L47.293 55.2929ZM48.4144 57L45.4143 60H57.5859L54.5859 57H48.4144Z" fill="#006B8E"/>
<path fill-rule="evenodd" clip-rule="evenodd" d="M54.7684 23.6402L49.7684 29.6402C49.5784 29.8682 49.297 30 49.0002 30H43.0002C42.6214 30 42.2751 29.786 42.1058 29.4472L39.1058 23.4472L40.8946 22.5528L43.6182 28H48.5318L53.232 22.3598L54.7684 23.6402Z" fill="#006B8E"/>
<path fill-rule="evenodd" clip-rule="evenodd" d="M54.7072 30.7071L49.7072 35.7071L48.293 34.2929L53.293 29.2929L54.7072 30.7071Z" fill="#006B8E"/>
<path fill-rule="evenodd" clip-rule="evenodd" d="M54.7072 36.7071L49.7072 41.7071L48.293 40.2929L53.293 35.2929L54.7072 36.7071Z" fill="#006B8E"/>
<path fill-rule="evenodd" clip-rule="evenodd" d="M54.7072 42.7071L49.7072 47.7071L48.293 46.2929L53.293 41.2929L54.7072 42.7071Z" fill="#006B8E"/>
<path fill-rule="evenodd" clip-rule="evenodd" d="M54.7072 48.7071L49.7072 53.7071L48.293 52.2929L53.293 47.2929L54.7072 48.7071Z" fill="#006B8E"/>
</svg>
