<svg width="72" height="72" viewBox="0 0 72 72" fill="none" xmlns="http://www.w3.org/2000/svg">
<path fill-rule="evenodd" clip-rule="evenodd" d="M22.5808 23.0044C24.3469 17.9219 29.1779 14.2726 34.8636 14.2726C38.7574 14.2726 42.2518 15.9855 44.633 18.6956C45.0078 18.6563 45.3881 18.6362 45.7727 18.6362C51.7474 18.6362 56.5909 23.4797 56.5909 29.4544C56.5909 35.4291 51.7474 40.2726 45.7727 40.2726H22.8636C18.0939 40.2726 14.2273 36.406 14.2273 31.6362C14.2273 26.9611 17.942 23.1536 22.5808 23.0044ZM34.8636 16.2726C29.8257 16.2726 25.5763 19.6603 24.2743 24.2839L24.0564 25.0575L23.2539 25.0111C23.1249 25.0037 22.9948 24.9999 22.8636 24.9999C19.1985 24.9999 16.2273 27.9711 16.2273 31.6362C16.2273 35.3014 19.1985 38.2726 22.8636 38.2726H45.7727C50.6429 38.2726 54.5909 34.3246 54.5909 29.4544C54.5909 24.5843 50.6429 20.6362 45.7727 20.6362C45.2972 20.6362 44.8311 20.6738 44.3771 20.7459L43.8043 20.8369L43.4409 20.3849C41.4231 17.8757 38.3309 16.2726 34.8636 16.2726Z" fill="#006B8E"/>
<path d="M49 29.9999H51V27.9999H49V29.9999Z" fill="#006B8E"/>
<path d="M45 33.9999H47V31.9999H45V33.9999Z" fill="#006B8E"/>
<path d="M45 29.9999H47V27.9999H45V29.9999Z" fill="#006B8E"/>
<path d="M21 33.9999H23V31.9999H21V33.9999Z" fill="#006B8E"/>
<path fill-rule="evenodd" clip-rule="evenodd" d="M50 46.9999C48.8954 46.9999 48 47.8953 48 48.9999C48 50.1044 48.8954 50.9999 50 50.9999C51.1046 50.9999 52 50.1044 52 48.9999C52 47.8953 51.1046 46.9999 50 46.9999ZM46 48.9999C46 46.7907 47.7909 44.9999 50 44.9999C52.2091 44.9999 54 46.7907 54 48.9999C54 51.209 52.2091 52.9999 50 52.9999C47.7909 52.9999 46 51.209 46 48.9999Z" fill="#006B8E"/>
<path fill-rule="evenodd" clip-rule="evenodd" d="M22 46.9999C20.8954 46.9999 20 47.8953 20 48.9999C20 50.1044 20.8954 50.9999 22 50.9999C23.1046 50.9999 24 50.1044 24 48.9999C24 47.8953 23.1046 46.9999 22 46.9999ZM18 48.9999C18 46.7907 19.7909 44.9999 22 44.9999C24.2091 44.9999 26 46.7907 26 48.9999C26 51.209 24.2091 52.9999 22 52.9999C19.7909 52.9999 18 51.209 18 48.9999Z" fill="#006B8E"/>
<path fill-rule="evenodd" clip-rule="evenodd" d="M43 56.9999C43 53.6862 45.6863 50.9999 49 50.9999H51C54.3137 50.9999 57 53.6862 57 56.9999V58.9999C57 60.1044 56.1046 60.9999 55 60.9999H45C43.8954 60.9999 43 60.1044 43 58.9999V56.9999ZM49 52.9999C46.7909 52.9999 45 54.7907 45 56.9999V58.9999H55V56.9999C55 54.7907 53.2091 52.9999 51 52.9999H49Z" fill="#006B8E"/>
<path fill-rule="evenodd" clip-rule="evenodd" d="M15 56.9999C15 53.6862 17.6863 50.9999 21 50.9999H23C26.3137 50.9999 29 53.6862 29 56.9999V58.9999C29 60.1044 28.1046 60.9999 27 60.9999H17C15.8954 60.9999 15 60.1044 15 58.9999V56.9999ZM21 52.9999C18.7909 52.9999 17 54.7907 17 56.9999V58.9999H27V56.9999C27 54.7907 25.2091 52.9999 23 52.9999H21Z" fill="#006B8E"/>
<path fill-rule="evenodd" clip-rule="evenodd" d="M39 41.9999C39.5523 41.9999 40 42.4476 40 42.9999V46.9999C40 48.6567 41.3431 49.9999 43 49.9999C43.5523 49.9999 44 50.4476 44 50.9999C44 51.5521 43.5523 51.9999 43 51.9999C40.2386 51.9999 38 49.7613 38 46.9999V42.9999C38 42.4476 38.4477 41.9999 39 41.9999Z" fill="#006B8E"/>
<path fill-rule="evenodd" clip-rule="evenodd" d="M33 41.9999C32.4477 41.9999 32 42.4476 32 42.9999V44.9999C32 46.6567 30.6569 47.9999 29 47.9999C28.4477 47.9999 28 48.4476 28 48.9999C28 49.5521 28.4477 49.9999 29 49.9999C31.7614 49.9999 34 47.7613 34 44.9999V42.9999C34 42.4476 33.5523 41.9999 33 41.9999Z" fill="#006B8E"/>
<path fill-rule="evenodd" clip-rule="evenodd" d="M13 24.9999C12.4477 24.9999 11.9899 24.5478 12.0997 24.0065C12.1634 23.6923 12.2573 23.3841 12.3806 23.0864C12.6319 22.4798 13.0002 21.9286 13.4645 21.4643C13.9288 21 14.48 20.6317 15.0866 20.3805C15.3842 20.2572 15.6924 20.1632 16.0066 20.0995C16.5479 19.9898 17 20.4476 17 20.9999C17 21.5521 16.5403 21.9843 16.0184 22.165C15.9624 22.1844 15.9069 22.2055 15.8519 22.2282C15.488 22.379 15.1573 22.6 14.8787 22.8785C14.6001 23.1571 14.3791 23.4878 14.2284 23.8518C14.2056 23.9067 14.1845 23.9622 14.1651 24.0183C13.9844 24.5402 13.5523 24.9999 13 24.9999Z" fill="#006B8E"/>
<path fill-rule="evenodd" clip-rule="evenodd" d="M56 20.9999C56.5523 20.9999 57.0101 20.5478 56.9003 20.0065C56.8366 19.6923 56.7427 19.3841 56.6194 19.0864C56.3681 18.4798 55.9998 17.9286 55.5355 17.4643C55.0712 17 54.52 16.6317 53.9134 16.3805C53.6158 16.2572 53.3076 16.1632 52.9934 16.0995C52.4521 15.9898 52 16.4476 52 16.9999C52 17.5521 52.4597 17.9843 52.9816 18.165C53.0376 18.1844 53.0931 18.2055 53.1481 18.2282C53.512 18.379 53.8427 18.6 54.1213 18.8785C54.3999 19.1571 54.6209 19.4878 54.7716 19.8518C54.7944 19.9067 54.8155 19.9622 54.8349 20.0183C55.0156 20.5402 55.4477 20.9999 56 20.9999Z" fill="#006B8E"/>
<path fill-rule="evenodd" clip-rule="evenodd" d="M60 20.9999C60.5523 20.9999 61.0057 20.5508 60.9445 20.0019C60.8509 19.1626 60.6394 18.339 60.3149 17.5557C59.8626 16.4638 59.1997 15.4716 58.364 14.6359C57.5282 13.8002 56.5361 13.1372 55.4442 12.6849C54.6609 12.3605 53.8372 12.149 52.998 12.0554C52.4491 11.9941 52 12.4476 52 12.9999C52 13.5521 52.45 13.9925 52.9966 14.0712C53.5731 14.1541 54.1383 14.3088 54.6788 14.5327C55.5281 14.8845 56.2997 15.4001 56.9497 16.0501C57.5998 16.7001 58.1154 17.4718 58.4672 18.3211C58.691 18.8616 58.8458 19.4268 58.9287 20.0033C59.0073 20.5499 59.4477 20.9999 60 20.9999Z" fill="#006B8E"/>
</svg>
